# xmcd
#
# Track frame offsets:
#	150
#	14400
#	26850
#	44025
#	57675
#	70125
#	83100
#	97650
#	112575
#	128025
#	145350
#	163050
#	176325
#	191850
#
# Disc length: 2750 seconds
#
# Revision: 2
# Processed by: cddbd v1.5.2PL0 Copyright (c) Steve Scherf et al.
# Submitted via: EasyCDDAExtractor 15.2.5.1
#
DISCID=c10abc0e
DTITLE=陳思安 (8) - 餐廳小唱(台灣版)
DYEAR=1980
DGENRE=Alternative
TTITLE0=留戀
TTITLE1=為什麼要留淚
TTITLE2=原諒我吧心上人
TTITLE3=含淚的分手
TTITLE4=淚的小花
TTITLE5=多少柔情多少淚
TTITLE6=幾度花落時
TTITLE7=淚灑愛河穚
TTITLE8=三年
TTITLE9=幾時再回頭
TTITLE10=倩影
TTITLE11=母親你在何方
TTITLE12=庭院深深
TTITLE13=想你想斷腸
EXTD=
EXTT0=
EXTT1=
EXTT2=
EXTT3=
EXTT4=
EXTT5=
EXTT6=
EXTT7=
EXTT8=
EXTT9=
EXTT10=
EXTT11=
EXTT12=
EXTT13=
PLAYORDER=
